<svg version="1.2" xmlns="http://www.w3.org/2000/svg" viewBox="0 0 30 48" width="30" height="48"><path d="M23.61 26.59c-1.88 0-3.57.83-4.73 2.13l-2.96-2.08q.48-1.29.49-2.75-.01-1.43-.47-2.7l2.95-2.06a6.32 6.32 0 0 0 4.72 2.12c3.48 0 6.31-2.81 6.31-6.26s-2.83-6.26-6.31-6.26c-3.47 0-6.3 2.81-6.3 6.26q0 .93.26 1.78l-2.96 2.06a8.2 8.2 0 0 0-5.05-2.91v-3.54c2.86-.59 5.01-3.11 5.01-6.12 0-3.45-2.83-6.26-6.3-6.26-3.48 0-6.31 2.81-6.31 6.26 0 2.97 2.09 5.46 4.89 6.09v3.59C3.03 16.6.12 19.91.12 23.89c0 4 2.94 7.32 6.79 7.96v3.79c-2.83.62-4.95 3.12-4.95 6.11 0 3.45 2.83 6.26 6.31 6.26 3.47 0 6.3-2.81 6.3-6.26 0-2.99-2.12-5.49-4.95-6.11v-3.79q.72-.12 1.42-.36.69-.25 1.32-.62.64-.37 1.2-.84.55-.47 1.02-1.04l2.98 2.1q-.25.84-.25 1.76c0 3.45 2.83 6.26 6.3 6.26 3.48 0 6.31-2.81 6.31-6.26s-2.83-6.26-6.31-6.26m0-14.63c1.69 0 3.06 1.36 3.06 3.03s-1.37 3.04-3.06 3.04c-1.68 0-3.05-1.37-3.05-3.04s1.37-3.03 3.05-3.03m-18.4-5.7c0-1.67 1.37-3.04 3.06-3.04 1.68 0 3.05 1.37 3.05 3.04S9.95 9.29 8.27 9.29c-1.69 0-3.06-1.36-3.06-3.03m6.11 35.49c0 1.67-1.37 3.03-3.05 3.03-1.69 0-3.06-1.36-3.06-3.03s1.37-3.04 3.06-3.04c1.68 0 3.05 1.37 3.05 3.04M8.26 28.12C5.91 28.12 4 26.23 4 23.89c0-2.33 1.91-4.23 4.26-4.23 2.36 0 4.27 1.9 4.27 4.23 0 2.34-1.91 4.23-4.27 4.23m15.35 7.76c-1.68 0-3.05-1.36-3.05-3.03s1.37-3.04 3.05-3.04c1.69 0 3.06 1.37 3.06 3.04s-1.37 3.03-3.06 3.03" style="fill:#231f20"/></svg>