<svg version="1.2" xmlns="http://www.w3.org/2000/svg" viewBox="0 0 64 64" width="64" height="64"><path d="m1.27 63.5 30.41-31.17q.07-.07.11-.15.04-.09.05-.19t-.01-.2q-.03-.09-.09-.17c-1.84-2.59-5.26-3.03-6.52-4.77-3.75-5.14-4.7-8.04-6.31-7.86q-.04 0-.08.02-.04.01-.08.03-.03.02-.07.04l-.06.06L7.64 30.4C1.32 36.87.41 51.14.25 63.08q0 .19.1.34t.27.22.35.03q.17-.04.3-.17" style="fill:#017cee"/><path d="M63.49 62.73 32.33 32.32q-.07-.07-.16-.11t-.19-.05-.19.01q-.1.03-.18.09c-2.58 1.85-3.03 5.26-4.76 6.52-5.14 3.75-8.05 4.7-7.87 6.31l.02.08q.01.04.03.07.02.04.05.08.02.03.05.06l11.26 10.98c6.48 6.32 20.74 7.23 32.69 7.39q.18 0 .33-.1t.22-.27.03-.34q-.04-.18-.17-.31" style="fill:#00ad46"/><path d="M30.4 56.36C26.86 52.91 25.22 46.08 32 32c-11.02 4.93-14.89 11.4-12.99 13.26z" style="fill:#04d659"/><path d="M62.73.51 32.32 31.67q-.07.07-.11.16t-.05.19.01.19q.03.1.08.18c1.85 2.58 5.26 3.03 6.53 4.76 3.74 5.14 4.7 8.05 6.3 7.87q.05-.01.09-.02t.07-.03q.04-.02.07-.05.04-.02.07-.06l10.98-11.25c6.32-6.48 7.23-20.74 7.39-32.69q0-.18-.1-.33t-.27-.22-.35-.03-.3.17" style="fill:#00c7d4"/><path d="M56.37 33.61C52.91 37.14 46.09 38.78 32 32c4.93 11.03 11.41 14.89 13.26 12.99z" style="fill:#11e1ee"/><path d="m.5 1.27 31.17 30.41q.07.07.16.11t.18.05q.1.01.2-.01.09-.03.18-.08c2.58-1.85 3.02-5.26 4.76-6.53 5.14-3.74 8.04-4.69 7.86-6.3q0-.05-.02-.09-.01-.04-.03-.07-.02-.04-.04-.07-.03-.04-.06-.07L33.6 7.64C27.13 1.32 12.86.41.92.25q-.19 0-.34.1T.36.62.33.97t.17.3" style="fill:#e43921"/><path d="M33.61 7.64C37.14 11.09 38.78 17.92 32 32c11.03-4.92 14.89-11.4 12.99-13.25z" style="fill:#ff7557"/><path d="M7.64 30.4C11.09 26.86 17.92 25.22 32 32c-4.93-11.02-11.4-14.88-13.26-12.98z" style="fill:#0cb6ff"/><path fill-rule="evenodd" d="M32 33.36c-.75 0-1.35-.61-1.35-1.36s.6-1.36 1.35-1.36c.76 0 1.36.61 1.36 1.36s-.6 1.36-1.36 1.36" style="fill:#4a4848"/></svg>