<svg version="1.2" xmlns="http://www.w3.org/2000/svg" viewBox="0 0 64 32" width="64" height="32"><path d="M47.55 0c-5.48 0-10.54 3.09-15.42 8.48C27.33 3 22.19 0 16.45 0 6.94 0 0 6.79 0 15.92s6.94 15.83 16.45 15.83c5.84 0 10.37-2.74 15.42-8.2 4.89 5.48 9.86 8.22 15.68 8.22C57.06 31.75 64 25.08 64 15.92S57.06 0 47.55 0M16.51 22.17c-4.03 0-6.43-2.65-6.43-6.17 0-3.51 2.4-6.24 6.43-6.24 3.4 0 6.17 2.73 9.17 6.41-2.83 3.43-5.83 6-9.17 6m30.76 0c-3.35 0-6.17-2.65-9.17-6.17 3.09-3.68 5.74-6.24 9.17-6.24 4.02 0 6.4 2.77 6.4 6.24 0 3.48-2.38 6.17-6.4 6.17" style="fill:#484848"/><path d="m39.03 29.49 6.4-7.63c-2.55-.77-4.9-3.06-7.33-5.9l-6.23 7.59c2.04 2.37 4.46 4.37 7.16 5.94m-6.9-21.02a28.8 28.8 0 0 0-7.12-6.07l-6.4 7.72c2.43.85 4.59 3.03 6.88 5.82l.25.18z" style="fill:#20a7c9"/></svg>