<svg version="1.2" xmlns="http://www.w3.org/2000/svg" viewBox="0 0 44 48" width="44" height="48"><style>.s0{fill:#cfd8dc}.s1{fill:#b71c1c}</style><path class="s0" d="M20.32 9.93c-1.95-2.94-2.37-6.86-2.46-8.48-4.93 1.08-9.83 3.01-9.55 4.43q.07.28.63.6l-.58 1.05Q7.3 6.94 7.15 6.12c-.32-1.61 1.48-3.07 5.52-4.45A49 49 0 0 1 18.32.13l.71-.14v.73c0 .05.03 5.15 2.28 8.55zM22.3 48H22C12.26 48 1.42 44.91.14 39.75c-.79-3.16 1.77-6.65 7.39-10.09l.61 1.03C3.09 33.78.66 36.9 1.29 39.45c1.11 4.49 11.39 7.29 20.4 7.35 1.07-1.62 6.83-11.11 3.54-23.85l1.15-.3c3.75 14.51-3.83 25-3.9 25.11z"/><path class="s0" d="M4.67 43.57c-.64 0-.95-.07-1.01-.09a.59.59 0 0 1-.27-1c.08-.09 8.56-8.65 9.7-15.58l1.17.2c-.98 5.96-6.79 12.75-9.1 15.25 2.3-.14 8.13-1.23 19.3-7.54-8.72-.96-10.1-8.01-10.11-8.09l1.17-.21c.05.29 1.45 7.21 10.99 7.21h.01c.27 0 .5.18.57.44.07.27-.04.54-.27.68-13.36 7.81-19.84 8.73-22.15 8.73"/><path class="s0" d="M10.14 46.44c-.25 0-.47-.15-.56-.39a.61.61 0 0 1 .21-.7c.04-.03 2.16-1.6 4.41-5.07q-1.31-.58-2.61-1.37c-1.06-.64-1.86-1.32-2.45-2.03-3.06.82-5.88 1.14-8.36.93l.1-1.2c2.23.19 4.77-.07 7.52-.77-1.87-3.22-.15-6.42-.13-6.47l1.04.59c-.08.14-1.51 2.84.3 5.56 2.61-.76 5.4-1.88 8.29-3.34.67-2.2 1.19-4.71 1.46-7.53q.04-.31.3-.46c.16-.1.37-.11.54-.03.04.02 3.88 1.79 6.66 2.95.21.08.35.27.37.49a.6.6 0 0 1-.26.56q-4.09 2.81-8.06 4.85c-.83 2.67-1.87 4.89-2.92 6.71 4.4 1.66 8.22 1.68 8.27 1.68.27 0 .51.19.58.45.06.27-.05.54-.29.68-5.4 3.02-13.99 3.88-14.36 3.91zm5.21-5.68c-1.24 1.94-2.45 3.33-3.36 4.24 2.38-.36 6.54-1.13 10-2.57-1.66-.21-4.05-.66-6.64-1.67m-4.92-4.24q.69.71 1.77 1.37 1.32.79 2.64 1.36c.89-1.52 1.78-3.34 2.54-5.48q-3.61 1.73-6.95 2.75m10.03-10.93q-.38 3.18-1.09 5.82 2.97-1.59 6.02-3.63a185 185 0 0 1-4.93-2.19M14.18 9.12q-.22 0-.39-.14c-1.91-1.66-4.16-5.02-4.26-5.17a.598.598 0 0 1 .78-.86c.01.01 1.11.47 8.58 1.72.22.04.39.19.46.39.08.21.03.44-.11.6-2.1 2.35-4.74 3.38-4.85 3.42q-.1.04-.21.04M11.47 4.5c.75 1.01 1.83 2.39 2.82 3.32.61-.28 1.97-.98 3.27-2.16-3.08-.53-4.95-.91-6.09-1.16"/><path class="s1" d="M18.84 25.68q-.12 0-.24-.05a.59.59 0 0 1-.35-.61c.35-3.3-4.67-4.62-4.72-4.64a.59.59 0 0 1-.27-1c.24-.25 6.11-6.12 13.47-9.34.2-.09.43-.06.61.08.17.14.25.37.21.59-1.42 6.89-7.98 14.45-8.26 14.77q-.19.2-.45.2m-4.03-6.14c1.41.54 3.88 1.77 4.5 4.03 1.72-2.17 5.4-7.17 6.77-11.92-5.21 2.53-9.6 6.35-11.27 7.89"/><path class="s1" d="m8.42 30.43-.57-1.05c2.24-1.22 4.81-3.46 6.91-6.07-1.79 1.24-2.81 2.08-2.85 2.11l-.76-.92c.05-.04 2.1-1.74 5.51-3.87.94-1.52 1.66-3.08 2.03-4.58q.09-.38.16-.73c-2.29-.83-4.4-1.32-5.85-1.53a.59.59 0 0 1-.48-.39.61.61 0 0 1 .12-.61c.1-.11 2.52-2.72 5.54-4.15.23-.12.51-.06.69.13.08.09 1.71 1.94 1.3 5.77 1.37.54 2.78 1.19 4.15 1.98 3.28-1.49 7-2.83 10.97-3.64a.597.597 0 0 1 .67.8c-1.54 4-5.69 8.27-5.86 8.45q-.19.19-.46.18-.26-.02-.43-.22c-1.34-1.69-3.08-3.09-4.95-4.23-2.59 1.2-4.88 2.49-6.76 3.66-2.41 3.78-6.03 7.25-9.08 8.91m17.14-13.15c1.53.99 2.96 2.17 4.14 3.53.99-1.07 3.35-3.8 4.69-6.5-3.15.73-6.13 1.79-8.83 2.97m-5.58-1.53q-.06.29-.14.6-.38 1.51-1.15 3.07 1.96-1.14 4.3-2.28-1.5-.8-3.01-1.39m-5.65-2.94c1.32.26 2.95.69 4.68 1.3.18-2.21-.41-3.57-.77-4.17-1.63.86-3.06 2.08-3.91 2.87"/><path class="s1" d="M14.33 18.6c0 5.26-4.34 9.43-7.47 12.48-.52.52-2.29.6-2.29.6q.66-.68 1.47-1.45c2.97-2.91 7.1-6.88 7.1-11.63 0-5.63-2.25-7.85-4.02-9.62-.78-.81-1.45-1.58-1.85-2.51l.36-.16c.41.18.87.39 1.23.54q.44.62 1.11 1.27c1.81 1.84 4.36 4.36 4.36 10.48"/><path class="s1" d="M43.92 20.15s-.72.11-.92.13c-10.42 1.16-21.17 4.19-27.31 6.67-2.23.9-4.54 1.99-6.64 3.22q-.02.01-.05.02c-1.23.72-4.24 2.21-6.68 3.52 3.57-3.83 10.25-6.78 12.91-7.86 6.03-2.44 16.39-5.38 26.58-6.64-1.2-1.41-4.14-4.41-9.92-6.65-3.37-1.32-8.51-2.06-13.04-2.72C11.64 8.8 7.54 8.1 7.15 6.12q-.12-.6.15-1.18c.39.65.95 1.11 1.32 1.37q.28.18.36.22l.01.01c1.69.9 6.24 1.56 10.04 2.11 4.59.67 9.78 1.43 13.29 2.79 8.17 3.18 10.99 7.72 11.11 7.92.11.18.49.79.49.79"/></svg>