<svg xmlns="http://www.w3.org/2000/svg" width="1200" height="630" viewBox="0 0 1200 630">
  <defs>
    <linearGradient id="bg" x1="0" y1="0" x2="1" y2="1">
      <stop offset="0%" stop-color="#0B1F2A"/>
      <stop offset="100%" stop-color="#123C3E"/>
    </linearGradient>
    <linearGradient id="accent" x1="0" y1="0" x2="1" y2="0">
      <stop offset="0%" stop-color="#FFB703"/>
      <stop offset="100%" stop-color="#FB8500"/>
    </linearGradient>
  </defs>
  <rect width="1200" height="630" fill="url(#bg)"/>

  <circle cx="180" cy="140" r="90" fill="#1B4D4F" opacity="0.7"/>
  <circle cx="260" cy="110" r="30" fill="#FFB703" opacity="0.9"/>
  <circle cx="980" cy="520" r="120" fill="#0E2B2D" opacity="0.7"/>

  <rect x="80" y="80" width="1040" height="470" rx="28" fill="#0E2B2D" opacity="0.85"/>
  <rect x="120" y="120" width="12" height="360" fill="url(#accent)"/>

  <text x="160" y="220" fill="#F2F2F2" font-size="48" font-weight="700"
        font-family="Space Grotesk, Arial, sans-serif">Spark | Salting for Skew</text>
  <text x="160" y="280" fill="#B9C8C8" font-size="26" font-weight="400"
        font-family="Space Grotesk, Arial, sans-serif">Fix skewed joins with simple evidence</text>

  <g transform="translate(160,340)">
    <rect x="0" y="0" width="150" height="54" rx="10" fill="#123C3E" stroke="#2B6B6E" stroke-width="2"/>
    <text x="16" y="35" fill="#FFB703" font-size="20" font-weight="600"
          font-family="Space Grotesk, Arial, sans-serif">OPTIMIZATION</text>
  </g>

  <g transform="translate(330,340)">
    <rect x="0" y="0" width="120" height="54" rx="10" fill="#123C3E" stroke="#2B6B6E" stroke-width="2"/>
    <text x="22" y="35" fill="#8ED1C6" font-size="20" font-weight="600"
          font-family="Space Grotesk, Arial, sans-serif">SPARK</text>
  </g>

  <g transform="translate(460,340)">
    <rect x="0" y="0" width="150" height="54" rx="10" fill="#123C3E" stroke="#2B6B6E" stroke-width="2"/>
    <text x="18" y="35" fill="#8ED1C6" font-size="20" font-weight="600"
          font-family="Space Grotesk, Arial, sans-serif">DATABRICKS</text>
  </g>

  <g transform="translate(820,160)">
    <circle cx="90" cy="90" r="90" fill="#143C3D" stroke="#2B6B6E" stroke-width="2"/>
    <path d="M70 60 L110 60 L90 120 Z" fill="#FFB703"/>
    <circle cx="90" cy="140" r="8" fill="#FFB703"/>
  </g>
</svg>
